<?xml version="1.0" encoding="utf-8"?>
<!-- Generator: Adobe Illustrator 20.1.0, SVG Export Plug-In . SVG Version: 6.00 Build 0)  -->
<svg version="1.1" id="Layer_1" xmlns="http://www.w3.org/2000/svg" xmlns:xlink="http://www.w3.org/1999/xlink" x="0px" y="0px"
	 viewBox="0 0 960 252.7" style="enable-background:new 0 0 960 252.7;" xml:space="preserve">
<style type="text/css">
	.st0{fill:#CC8000;stroke:#A09A9A;stroke-width:4;stroke-miterlimit:10;}
	.st1{fill:#FFFFFF;stroke:#A09A9A;stroke-width:4;stroke-miterlimit:10;}
	.st2{fill:#C1BFBF;}
	.st3{fill:none;stroke:#A09A9A;stroke-width:4;stroke-miterlimit:10;}
</style>
<g>
	<polygon class="st0" points="332,16.9 276.3,16.9 296.5,0 346.2,0 	"/>
	<polygon class="st1" points="387.9,16.9 332,16.9 346.2,0 396.1,0 	"/>
	<polygon class="st0" points="443.6,16.9 387.9,16.9 396.1,0 446,0 	"/>
	<polygon class="st1" points="499.3,16.9 443.6,16.9 446,0 495.8,0 	"/>
	<polygon class="st0" points="555.2,16.9 499.3,16.9 495.8,0 545.7,0 	"/>
	<polygon class="st0" points="666.6,16.9 610.9,16.9 595.5,0 645.4,0 	"/>
	<polygon class="st1" points="610.9,16.9 555.2,16.9 545.7,0 595.5,0 	"/>
	<polygon class="st1" points="314,38.4 250.7,38.4 276.3,16.9 332,16.9 	"/>
	<polygon class="st0" points="377.2,38.4 314,38.4 332,16.9 387.9,16.9 	"/>
	<polygon class="st1" points="440.5,38.4 377.2,38.4 387.9,16.9 443.6,16.9 	"/>
	<polygon class="st0" points="503.8,38.4 440.5,38.4 443.6,16.9 499.3,16.9 	"/>
	<polygon class="st1" points="567,38.4 503.8,38.4 499.3,16.9 555.2,16.9 	"/>
	<polygon class="st1" points="693.7,38.4 630.4,38.4 610.9,16.9 666.6,16.9 	"/>
	<polygon class="st0" points="630.4,38.4 567,38.4 555.2,16.9 610.9,16.9 	"/>
	<polygon class="st0" points="290.2,66.5 217,66.5 250.7,38.4 314,38.4 	"/>
	<polygon class="st1" points="363.3,66.5 290.2,66.5 314,38.4 377.2,38.4 	"/>
	<polygon class="st0" points="436.5,66.5 363.3,66.5 377.2,38.4 440.5,38.4 	"/>
	<polygon class="st1" points="509.6,66.5 436.5,66.5 440.5,38.4 503.8,38.4 	"/>
	<polygon class="st0" points="582.8,66.5 509.6,66.5 503.8,38.4 567,38.4 	"/>
	<polygon class="st0" points="729,66.5 656,66.5 630.4,38.4 693.7,38.4 	"/>
	<polygon class="st1" points="656,66.5 582.8,66.5 567,38.4 630.4,38.4 	"/>
	<polygon class="st1" points="257.7,105 171,105 217,66.5 290.2,66.5 	"/>
	<polygon class="st0" points="344.3,105 257.7,105 290.2,66.5 363.3,66.5 	"/>
	<polygon class="st1" points="431,105 344.3,105 363.3,66.5 436.5,66.5 	"/>
	<polygon class="st0" points="517.6,105 431,105 436.5,66.5 509.6,66.5 	"/>
	<polygon class="st1" points="604.3,105 517.6,105 509.6,66.5 582.8,66.5 	"/>
	<polygon class="st1" points="777.6,105 690.9,105 656,66.5 729,66.5 	"/>
	<polygon class="st0" points="690.9,105 604.3,105 582.8,66.5 656,66.5 	"/>
	<polygon class="st0" points="210.5,161.1 104.2,161.1 171,105 257.7,105 	"/>
	<polygon class="st1" points="316.8,161.1 210.5,161.1 257.7,105 344.3,105 	"/>
	<polygon class="st0" points="423,161.1 316.8,161.1 344.3,105 431,105 	"/>
	<polygon class="st1" points="529.2,161.1 423,161.1 431,105 517.6,105 	"/>
	<polygon class="st0" points="635.5,161.1 529.2,161.1 517.6,105 604.3,105 	"/>
	<polygon class="st0" points="848,161.1 741.8,161.1 690.9,105 777.6,105 	"/>
	<polygon class="st1" points="741.8,161.1 635.5,161.1 604.3,105 690.9,105 	"/>
	<polygon class="st1" points="135.5,249.9 -1.8,249.9 104.2,161.1 210.5,161.1 	"/>
	<polygon class="st0" points="272.9,249.9 135.5,249.9 210.5,161.1 316.8,161.1 	"/>
	<polygon class="st1" points="410.3,249.9 272.9,249.9 316.8,161.1 423,161.1 	"/>
	<polygon class="st0" points="547.6,249.9 410.3,249.9 423,161.1 529.2,161.1 	"/>
	<polygon class="st1" points="685,249.9 547.6,249.9 529.2,161.1 635.5,161.1 	"/>
	<polygon class="st1" points="959.8,249.9 822.5,249.9 741.8,161.1 848,161.1 	"/>
	<polygon class="st0" points="822.5,249.9 685,249.9 635.5,161.1 741.8,161.1 	"/>
</g>
<g>
	<g>
		<path class="st2" d="M233.2,96.6h-5.1l4.2-4.6c0.3-0.3,0.9-0.9,1.8-1.7c-0.7,0.5-1.6,1.3-2.6,1.8l-7.3,4.5H222l1.2-4.6
			c0.1-0.5,0.3-1.1,0.6-1.8c-0.6,0.6-1,1.3-1.6,1.8l-4.4,4.5h-4.2l8.6-9.2h6.1l-1.5,5.1l8.5-5.1h5.9L233.2,96.6z"/>
		<path class="st2" d="M242.5,96.6h-5.3l7.8-9.2h5.1L242.5,96.6z"/>
		<path class="st2" d="M261,95.9c-1.6,0.2-3.2,0.3-4.7,0.3c-3.1,0-5.3-0.5-6.4-1.3c-1.2-0.8-1.2-1.8,0-3.2c1.2-1.3,2.9-2.3,5.6-3.1
			c2.5-0.8,5.3-1.1,8.2-1.1c1.5,0,2.9,0.1,4.2,0.5l-2.5,1.5c-0.9-0.1-1.6-0.2-2.3-0.2c-1.6,0-3.2,0.2-4.5,0.7
			c-1.5,0.5-2.5,1.1-3.1,1.8c-0.6,0.8-0.7,1.4-0.1,1.8c0.6,0.6,1.8,0.8,3.7,0.8c0.9,0,1.8-0.1,2.9-0.2L261,95.9z"/>
		<path class="st2" d="M278.8,96l-5.9,0.5l-0.1-3.3h-1.3l-2.6,3.4h-5.3l6.9-9.2h6.6c1.3,0,2.2,0.2,2.6,0.2c1,0.1,1.8,0.3,2.2,0.5
			c1,0.5,1.2,1,0.4,2c-0.7,1-2.5,1.8-5,2.3L278.8,96z M277.5,90.3c0.3-0.5,0.3-0.5-0.1-0.6c-0.3-0.1-0.9,0.1-1.9,0.1h-1l-1.8,2.3
			h0.9c1,0,1.9-0.3,2.5-0.6C276.6,91.2,277.2,90.6,277.5,90.3z"/>
		<path class="st2" d="M301.1,91.9c-0.9,1.3-2.3,2.3-4.5,3.2c-2.2,0.9-4.7,1.3-7.3,1.3c-2.6,0-4.4-0.5-5.4-1.3s-1-1.8,0-3.1
			c0.9-1.3,2.5-2.3,4.8-3.1c2.2-0.8,4.5-1.1,7.2-1.1c2.3,0,4,0.3,5,1.1C301.8,89.6,302,90.6,301.1,91.9z M295.7,91.9
			c1.2-1.7,0.7-2.6-1.3-2.6s-3.8,0.8-5,2.5c-1.3,1.7-0.9,2.6,1.3,2.6C292.7,94.5,294.3,93.6,295.7,91.9z"/>
		<path class="st2" d="M330.6,88.1l-9.5,8.5H316l-0.1-5.3l-6.9,5.3h-5.1l1.2-8.5l5.4-0.3l-1.5,5.7l7.8-6.1h3.8v6l6.1-5.7L330.6,88.1
			z"/>
		<path class="st2" d="M344.7,96.6H339l-0.3-2.3h-5.4l-2.8,2.3h-4.1l11.7-9.2h4.4L344.7,96.6z M338.5,93.2l-0.3-2.6l-3.4,2.6H338.5z
			"/>
		<path class="st2" d="M366.3,88.1l-10.2,8.5h-5l-2.3-8.5l5.6-0.3l1,5.9l6.6-5.9L366.3,88.1z"/>
		<path class="st2" d="M376.7,96.6H365l3.4-9.2h10.4l-0.6,2.3h-5.3l-0.6,1.1h5.3L377,92h-5.3l-0.7,2.3h6.4L376.7,96.6z"/>
		<path class="st2" d="M392.4,94.3c-0.3,0.9-0.6,1.7-1.2,2.2c-0.6,0.6-1.6,1.1-2.9,1.5c-1.3,0.3-2.6,0.6-4.2,0.6l0.4-1.5
			c0.9-0.1,1.5-0.3,1.6-0.6c0.3-0.2,0.6-1,0.9-2.1l2-6.9h5.1L392.4,94.3z"/>
		<path class="st2" d="M412.4,96.6h-5.7l-0.9-2.3h-5.4l-2.2,2.3h-4.1l9.4-9.2h4.4L412.4,96.6z M405.3,93.2l-1.2-2.6l-2.5,2.6H405.3z
			"/>
		<path class="st2" d="M431.7,88.1l-7.9,8.5h-5l-4.5-8.5l5.4-0.3l2.8,5.9l5-5.9L431.7,88.1z"/>
		<path class="st2" d="M449.2,96.6h-5.7l-1.2-2.3h-5.4l-1.9,2.3h-4.1l8-9.2h4.4L449.2,96.6z M441.5,93.2l-1.5-2.6l-2.2,2.6H441.5z"
			/>
		<path class="st2" d="M462.5,93.7c0,0.8-0.6,1.4-1.9,1.8c-1.3,0.5-2.9,0.7-5,0.7s-4-0.2-5.6-0.8l1.6-1.4c1,0.5,2,0.6,3.2,0.6
			c0.6,0,1.2-0.1,1.6-0.2s0.7-0.3,0.7-0.6s-0.1-0.5-0.6-0.7c-0.3-0.1-0.9-0.5-1.9-0.9c-0.6-0.2-1.3-0.6-2.3-1
			c-0.9-0.5-1.2-0.9-1.2-1.5c0-0.7,0.6-1.1,1.8-1.6c1.2-0.3,2.6-0.6,4.4-0.6c1.6,0,3.1,0.2,4.5,0.6l-1.3,1.3
			c-0.9-0.2-1.6-0.3-2.3-0.3c-1,0-1.6,0.2-1.6,0.6c0,0.1,0.1,0.2,0.3,0.5c0.1,0.1,0.7,0.3,1.5,0.7c0.9,0.3,1.8,0.8,2.6,1.1
			C461.9,92.5,462.5,93.2,462.5,93.7z"/>
		<path class="st2" d="M480,95.9c-1.5,0.2-2.9,0.3-4.4,0.3c-3.1,0-5.7-0.5-7.6-1.3s-2.9-1.8-2.9-3.2c0-1.3,0.9-2.3,2.8-3.1
			s4.2-1.1,7-1.1c1.5,0,3.1,0.1,4.5,0.5l-1.2,1.5c-0.9-0.1-1.8-0.2-2.5-0.2c-1.6,0-2.9,0.2-4,0.7c-1,0.5-1.5,1.1-1.5,1.8
			c0,0.8,0.4,1.4,1.5,1.8c1,0.6,2.5,0.8,4.2,0.8c0.9,0,1.8-0.1,2.6-0.2L480,95.9z"/>
		<path class="st2" d="M497.9,96l-5.6,0.5l-3.4-3.3h-1.3l0.3,3.4h-5.3l-0.7-9.2h6.6c1.3,0,2.2,0.2,2.8,0.2c1,0.1,1.9,0.3,2.6,0.5
			c1.3,0.5,2,1,2.2,2c0.1,1-0.9,1.8-2.9,2.3L497.9,96z M491.3,90.3c0-0.5-0.3-0.5-0.9-0.6c-0.4-0.1-1.2,0.1-2,0.1h-1l0.3,2.3h0.9
			c1,0,1.9-0.3,2.3-0.6C491.2,91.2,491.3,90.6,491.3,90.3z"/>
		<path class="st2" d="M505.9,96.6h-5.3l-1.3-9.2h5.1L505.9,96.6z"/>
		<path class="st2" d="M522.9,90.1c0.1,0.5,0,0.8-0.3,1.3c-0.3,0.3-0.7,0.8-1.3,1c-1.3,0.6-3.1,0.8-5.3,0.8h-0.4l-0.3-1.5
			c0.9,0,1.6-0.2,2-0.5c0.4-0.2,0.6-0.6,0.6-0.9c-0.1-0.5-0.6-0.6-1.5-0.7c-0.3,0-1,0.1-2,0.1h-0.7l1.5,6.9h-5.3l-1.6-9.2h6.1
			c1.5,0,2.5,0.1,2.9,0.2c1.2,0,2,0.2,2.9,0.5C521.9,88.6,522.8,89.2,522.9,90.1z"/>
		<path class="st2" d="M538.6,89.7h-5l2,6.9h-5.3l-1.9-6.9h-5l-0.4-2.3h15.1L538.6,89.7z"/>
		<path class="st2" d="M560.5,89.7h-5l2.8,6.9H553l-2.5-6.9h-5l-0.6-2.3H560L560.5,89.7z"/>
		<path class="st2" d="M577.3,96.6h-11.9l-3.5-9.2h10.4l0.7,2.3h-5.3l0.7,1.1h5.3l0.7,1.1h-5.3l0.9,2.3h6.4L577.3,96.6z"/>
		<path class="st2" d="M596.8,96.6h-5.7l-2.5-2.3h-5.4l-0.7,2.3h-4.1l2.9-9.2h4.4L596.8,96.6z M587.1,93.2l-3.1-2.6l-0.6,2.6H587.1z
			"/>
		<path class="st2" d="M618.5,96.6h-5.1l-2.6-4.6c-0.1-0.3-0.4-0.9-0.9-1.7c0,0.5,0,1.3,0,1.8l-0.4,4.5h-2.2l-5.7-4.6
			c-0.6-0.5-1.3-1.1-2-1.8c0.4,0.6,0.7,1.3,1,1.8l2.5,4.5H599l-4.7-9.2h6.1l6.6,5.1l0.4-5.1h5.9L618.5,96.6z"/>
		<path class="st2" d="M639.2,90.1c0.3,0.5,0.4,0.8,0.3,1.3c-0.1,0.3-0.4,0.8-0.9,1c-1,0.6-2.6,0.8-4.8,0.8h-0.4l-1-1.5
			c0.9,0,1.5-0.2,1.8-0.5c0.3-0.2,0.4-0.6,0.1-0.9c-0.3-0.5-1-0.6-1.9-0.7c-0.4,0-1,0.1-2,0.1h-0.7l4.8,6.9h-5.3l-5.9-9.2h6.1
			c1.5,0,2.5,0.1,2.9,0.2c1.2,0,2.2,0.2,3.1,0.5C637.3,88.6,638.6,89.2,639.2,90.1z"/>
		<path class="st2" d="M661.6,96l-5.4,0.5l-5.7-3.3h-1.3l2.6,3.4h-5.3l-6.4-9.2h6.6c1.3,0,2.2,0.2,2.8,0.2c1,0.1,2,0.3,2.8,0.5
			c1.6,0.5,2.8,1,3.5,2c0.9,1,0.4,1.8-1.3,2.3L661.6,96z M651.1,90.3c-0.3-0.5-0.9-0.5-1.5-0.6c-0.4-0.1-1.2,0.1-2.2,0.1h-1l1.8,2.3
			h0.9c1,0,1.8-0.3,2-0.6C651.4,91.2,651.4,90.6,651.1,90.3z"/>
		<path class="st2" d="M677.3,91.9c1.2,1.3,1.3,2.3,0.4,3.2c-0.9,0.9-2.6,1.3-5.3,1.3s-5.1-0.5-7.5-1.3c-2.3-0.8-4-1.8-5-3.1
			c-1-1.3-1-2.3-0.1-3.1c1-0.8,2.8-1.1,5.3-1.1c2.3,0,4.7,0.3,6.9,1.1C674.5,89.6,676.1,90.6,677.3,91.9z M671.9,91.9
			c-1.5-1.7-3.4-2.6-5.4-2.6s-2.3,0.8-0.9,2.5c1.5,1.7,3.4,2.6,5.4,2.6S673.3,93.6,671.9,91.9z"/>
		<path class="st2" d="M688.1,94.3c0.9,0.9,1.3,1.7,1.5,2.2c0.1,0.6-0.3,1.1-1,1.5c-0.9,0.3-2,0.6-3.5,0.6l-1.5-1.5
			c0.7-0.1,1-0.3,0.9-0.6c0-0.2-0.6-1-1.5-2.1l-6.1-6.9h5.1L688.1,94.3z"/>
		<path class="st2" d="M705.7,96.6h-11.9l-8-9.2h10.4l1.6,2.3h-5.3l1.6,1.1h5.3L701,92h-5.3l1.9,2.3h6.4L705.7,96.6z"/>
		<path class="st2" d="M722.6,95.9c-1.2,0.2-2.5,0.3-4.1,0.3c-3.1,0-6-0.5-8.9-1.3c-2.8-0.8-4.8-1.8-6.1-3.2
			c-1.3-1.3-1.3-2.3-0.3-3.1s2.9-1.1,5.9-1.1c1.5,0,3.2,0.1,5,0.5l0.3,1.5c-1-0.1-1.9-0.2-2.6-0.2c-1.6,0-2.8,0.2-3.2,0.7
			s-0.3,1.1,0.4,1.8c0.7,0.8,1.9,1.4,3.2,1.8c1.6,0.6,3.2,0.8,5.1,0.8c0.9,0,1.8-0.1,2.5-0.2L722.6,95.9z"/>
		<path class="st2" d="M731.4,89.7h-5l7.8,6.9h-5.3l-7.6-6.9h-5l-1.6-2.3h15.1L731.4,89.7z"/>
		<path class="st2" d="M392.4,107.3c-0.4,1.5-1.6,2.6-3.5,3.6c-2,1-4.4,1.5-7.3,1.5s-5-0.5-6.3-1.5c-1.3-0.9-1.8-2.2-1.3-3.6
			c0.4-1.5,1.8-2.6,3.8-3.6c2-0.9,4.4-1.4,7.2-1.4c2.5,0,4.4,0.5,5.9,1.4C392.2,104.8,392.8,105.9,392.4,107.3z M386.5,107.3
			c0.6-2-0.3-3-2.5-3s-3.7,0.9-4.2,2.9c-0.6,2,0.1,3,2.5,3C384.6,110.3,386.1,109.2,386.5,107.3z"/>
		<path class="st2" d="M409.8,111.9c-1.6,0.2-3.2,0.5-4.8,0.5c-3.4,0-5.9-0.5-7.8-1.4s-2.5-2.2-2.2-3.7c0.4-1.4,1.6-2.6,4-3.4
			c2.2-0.9,4.8-1.4,7.9-1.4c1.6,0,3.2,0.1,4.7,0.5l-1.8,1.7c-0.9-0.1-1.8-0.2-2.5-0.2c-1.8,0-3.2,0.2-4.4,0.8
			c-1.2,0.6-1.9,1.3-2,2.2c-0.1,0.8,0.1,1.5,1,2.1s2.3,0.9,4.4,0.9c0.9,0,1.9-0.1,2.9-0.2L409.8,111.9z"/>
		<path class="st2" d="M428.2,104.7h-5.4l-1.2,8H416l1.5-8h-5.3l0.3-2.3h15.9L428.2,104.7z"/>
		<path class="st2" d="M447.7,107.3c-0.1,1.5-1,2.6-2.8,3.6s-4.1,1.5-6.9,1.5s-5-0.5-6.6-1.5c-1.6-0.9-2.2-2.2-2-3.6
			c0.1-1.5,1.2-2.6,3.1-3.6c1.9-0.9,4.1-1.4,6.9-1.4c2.5,0,4.5,0.5,6.1,1.4C447,104.8,447.7,105.9,447.7,107.3z M441.8,107.3
			c0.1-2-0.9-3-3.1-3s-3.4,0.9-3.7,2.9c-0.1,2,0.9,3,3.1,3C440.4,110.3,441.7,109.2,441.8,107.3z"/>
		<path class="st2" d="M466.6,109.2c0,0.7-0.4,1.3-1.3,1.7c-0.7,0.5-1.8,1-3.1,1.3c-1,0.1-2.6,0.5-5,0.5h-6.6l0.4-10.3h6.4
			c1.6,0,2.6,0.1,3.4,0.2c0.6,0,1.3,0.2,1.9,0.3c1.6,0.3,2.3,1,2.3,1.8c0,0.5-0.3,0.9-0.9,1.3c-0.6,0.3-1.5,0.6-2.8,0.9
			c0.9,0,1.6,0.1,2.3,0.3C465.7,107.6,466.6,108.3,466.6,109.2z M460.4,105.1c0-0.5-0.4-0.5-1.2-0.7c-0.3-0.1-0.9,0.2-1.8,0.2h-0.9
			v1.1h0.7c1,0,1.8,0.2,2,0C460.1,105.6,460.4,105.6,460.4,105.1z M460.9,109.1c0-0.6-0.4-0.8-1.3-1c-0.3-0.1-1,0-1.9,0h-1v2.3h0.9
			c1.2,0,2,0,2.6-0.2C460.6,109.8,460.9,109.6,460.9,109.1z"/>
		<path class="st2" d="M482.5,112.7h-12.6l-0.3-10.3h11.1l0.1,2.3h-5.7l0.1,1.1h5.6l0.1,2.3h-5.6l0.1,2.3h6.9L482.5,112.7z"/>
		<path class="st2" d="M501.8,112l-5.9,0.2l-3.7-4.1h-1.5l0.4,4.6h-5.6l-0.9-10.3h7c1.3,0,2.3,0.1,2.9,0.2c1.2,0.1,2,0.3,2.8,0.6
			c1.5,0.5,2.2,1.3,2.3,2.2c0.1,1.1-0.9,2.1-3.1,2.6L501.8,112z M494.8,105.5c0-0.5-0.4-0.6-1-0.8c-0.4-0.1-1.2,0-2.2,0h-1l0.3,2.3
			h1c1.2,0,1.9-0.2,2.3-0.5C494.7,106.3,494.8,105.9,494.8,105.5z"/>
		<path class="st2" d="M526,112.7h-15.1l-0.3-1.6c3.2-1.6,5.3-3,6.3-3.8s1.5-1.5,1.3-2.1c0-0.3-0.3-0.6-0.7-0.8
			c-0.4-0.2-0.9-0.3-1.6-0.3c-1,0-2.3,0.3-4,0.9l-2-1.4c1.9-0.8,4.1-1.3,6.7-1.3c2,0,3.7,0.2,5,0.7s2,1,2.2,1.7
			c0.3,1-0.6,2.3-2.6,3.4c-0.6,0.3-1.8,0.9-3.7,2.1h7.8L526,112.7z"/>
		<path class="st2" d="M543.2,107.2c0.4,1.5,0.1,2.6-1.2,3.7c-1.2,0.9-3.1,1.5-5.4,1.5c-2.3,0-4.5-0.5-6.3-1.5
			c-1.8-0.9-2.8-2.2-3.2-3.6c-0.4-1.5,0-2.6,1.3-3.6c1.2-0.9,3.1-1.3,5.4-1.3c2.2,0,4.2,0.5,6,1.3
			C541.6,104.7,542.8,105.8,543.2,107.2z M537.8,107.3c-0.6-2.1-1.8-3.1-3.5-3.1c-1.8,0-2.2,1-1.6,3.1c0.6,2.1,1.8,3.2,3.5,3.2
			C537.8,110.4,538.4,109.4,537.8,107.3z"/>
		<path class="st2" d="M558.2,112.7h-5.6l-2.8-8.2l-3.4,0.6l-1-1.6l4.7-1.1h4.7L558.2,112.7z"/>
		<path class="st2" d="M579.2,108.9c0.4,0.9,0,1.7-1.3,2.4s-3.1,1-5.3,1c-2.3,0-4.2-0.3-6-1c-1.9-0.7-3.1-1.6-3.5-2.8
			c-0.7-1.7,0.3-3.2,2.8-4.4c2.2-1,5.1-1.6,8.6-1.8l0.6,1.4c-1.5,0-2.8,0.3-4.1,0.8c-1.3,0.6-2,1-2.2,1.6c0.7-0.1,1.6-0.1,2.3-0.1
			c1.9,0,3.7,0.2,5.1,0.8C577.9,107.5,578.8,108.1,579.2,108.9z M573.8,109.1c-0.3-0.6-0.6-0.9-1.2-1.3c-0.6-0.3-1.2-0.5-1.9-0.5
			s-1.2,0.1-1.5,0.5c-0.3,0.3-0.3,0.7-0.1,1.3c0.3,0.6,0.6,1,1.2,1.4c0.6,0.3,1.2,0.6,1.9,0.6s1.2-0.2,1.5-0.6
			C574,110.2,574,109.7,573.8,109.1z"/>
		<path class="st2" d="M240.6,121.9h-6l-2.2,2.3h6l-1.8,2.3h-6l-3.7,3.4h-6l9.5-10.3h11.9L240.6,121.9z"/>
		<path class="st2" d="M254,130.3l-6.6,0.6l0.3-4.4h-1.5l-3.5,3.4h-6l8.9-10.3h7.5c1.5,0,2.5,0,3.1,0c1,0.1,1.9,0.2,2.5,0.5
			c1,0.6,1.2,1.4,0.3,2.4c-1,1.3-2.9,2.3-5.9,3L254,130.3z M252.9,122.7c0.4-0.6,0.4-0.7,0-0.9c-0.3-0.1-1,0-2.2,0h-1l-2.3,2.3h1
			c1.2,0,2.2-0.1,2.9-0.3C252.1,123.6,252.6,123.3,252.9,122.7z"/>
		<path class="st2" d="M279.7,124.8c-1.2,1.6-2.9,3-5.4,4.1c-2.6,1.1-5.4,1.7-8.5,1.7s-5-0.6-6-1.7c-1-1-0.9-2.4,0.3-4.1
			c1.2-1.6,3.2-3,5.7-4c2.6-1,5.4-1.5,8.2-1.5c2.6,0,4.5,0.5,5.6,1.5C280.7,121.9,280.7,123.2,279.7,124.8z M273.4,124.9
			c1.6-2.3,1.2-3.3-1.3-3.3c-2.3,0-4.4,1.1-6,3.3c-1.6,2.3-1.3,3.4,1.2,3.4C269.9,128.2,271.8,127.2,273.4,124.9z"/>
		<path class="st2" d="M302,129.9h-5.7l3.4-5.4c0.3-0.5,0.7-1,1.5-2.1c-0.7,0.7-1.5,1.1-2.5,2l-6.9,5.4h-2.6v-5.4
			c0-0.6,0-1.1,0.1-2.1c-0.4,0.8-0.9,1.3-1.3,2l-3.7,5.4h-4.8l7.2-10.3h6.9v6.6l8-6.6h6.7L302,129.9z"/>
		<path class="st2" d="M334,121.9h-5.7l-4.4,8h-6l4.7-8H317l1-2.3h17L334,121.9z"/>
		<path class="st2" d="M350.7,129.9h-6l2.2-4.6h-6.4l-2.3,4.6h-6l5.1-10.3h5.9l-1.6,3.4h6.3l1.6-3.4h5.9L350.7,129.9z"/>
		<path class="st2" d="M368.8,129.9h-13.5l4.2-10.3h11.9l-0.7,2.3h-6L364,123h6l-0.7,2.3h-6l-1,3.4h7.5L368.8,129.9z"/>
		<path class="st2" d="M402.3,129.9h-5.7l1.3-5.4c0.1-0.5,0.3-1,0.6-2.1c-0.4,0.7-1,1.1-1.8,2l-4.8,5.4h-2.6l-2-5.4
			c-0.1-0.6-0.4-1.1-0.6-2.1c-0.1,0.8-0.3,1.3-0.4,2l-1.6,5.4h-4.8l3.2-10.3h6.9l2.3,6.6l5.6-6.6h6.7L402.3,129.9z"/>
		<path class="st2" d="M425.7,129.9h-6.4l-1.2-2.3H412l-2.5,2.3h-4.7l10.1-10.3h5L425.7,129.9z M417.4,126.5l-1.5-3.4l-2.8,3.4
			H417.4z"/>
		<path class="st2" d="M445.8,130.1c-2.3,0.3-4.4,0.6-6.3,0.6c-3.5,0-6.3-0.6-8.5-1.7c-2.2-1.1-3.1-2.5-2.9-4.3
			c0.1-1.6,1.5-2.9,3.7-3.9s5-1.5,8.3-1.5c1.8,0,3.4,0.2,5,0.6l-1.6,1.8c-0.9-0.1-1.8-0.2-2.6-0.2c-1.9,0-3.4,0.3-4.7,0.9
			c-1.2,0.6-1.9,1.4-1.9,2.4c-0.1,0.9,0.3,1.7,1.2,2.4s2,1,3.5,1c0.3,0,0.6,0,0.9,0l0.3-2.9h5.9L445.8,130.1z"/>
		<path class="st2" d="M467.4,129.9h-3.8l-8.9-6.3l-0.1,6.3h-4.8l0.4-10.3h4.1l8.5,6v-6h4.5L467.4,129.9z"/>
		<path class="st2" d="M478,129.9h-6l-0.4-10.3h5.9L478,129.9z"/>
		<path class="st2" d="M493.9,121.9h-6l0.3,2.3h6l0.3,2.3h-6l0.4,3.4h-6l-0.7-10.3h11.9L493.9,121.9z"/>
		<path class="st2" d="M504,129.9h-6l-1.5-10.3h5.9L504,129.9z"/>
		<path class="st2" d="M524.8,130.2c-1.6,0.3-3.2,0.5-5,0.5c-3.5,0-6.6-0.6-8.9-1.6c-2.3-1-3.7-2.4-4-4.1c-0.3-1.6,0.6-3,2.5-4
			s4.5-1.5,7.8-1.5c1.8,0,3.5,0.2,5.3,0.6l-1,2c-1-0.1-2-0.2-2.8-0.2c-1.9,0-3.4,0.3-4.4,0.9s-1.5,1.4-1.2,2.4
			c0.1,0.9,0.9,1.7,2,2.4c1.3,0.7,2.9,1,5.1,1c1,0,2-0.1,3.1-0.2L524.8,130.2z"/>
		<path class="st2" d="M541.5,129.9H528l-2.6-10.3h11.9l0.6,2.3h-6l0.6,1.1h6l0.6,2.3h-6l0.7,3.4h7.5L541.5,129.9z"/>
		<path class="st2" d="M562.9,129.9H559l-11.1-6.3l2,6.3h-5l-3.2-10.3h4.1l10.5,6l-2-6h4.5L562.9,129.9z"/>
		<path class="st2" d="M579.1,121.9h-5.7l3.7,8h-6l-3.5-8H562l-0.7-2.3h17L579.1,121.9z"/>
		<path class="st2" d="M615.4,129.9h-5.7l-2.9-5.4c-0.1-0.5-0.6-1-1-2.1c0,0.7,0,1.1,0,2l-0.7,5.5h-2.6l-6.4-5.4
			c-0.7-0.6-1.5-1.1-2.3-2.1c0.4,0.8,0.9,1.3,1.2,2l2.8,5.4H593l-5.1-10.3h6.9l7.5,6.6l0.6-6.6h6.7L615.4,129.9z"/>
		<path class="st2" d="M625.9,129.9h-6l-6.1-10.3h5.9L625.9,129.9z"/>
		<path class="st2" d="M648.3,129.9h-3.8l-13-6.3l4,6.3h-4.8l-6.6-10.3h4.1l12.3,6l-4-6h4.5L648.3,129.9z"/>
		<path class="st2" d="M667.6,124.5c1.6,2.1,1.3,3.4-0.7,4.6c-1.5,0.7-3.8,0.8-7.2,0.8H653l-7.5-10.3h6.1c2,0,3.7,0,4.5,0.1
			c2.6,0.2,4.8,0.8,6.9,1.6C665,122.1,666.6,123.3,667.6,124.5z M661.3,124.7c-0.9-1.3-2.3-2-4.1-2.5c-1-0.2-2.2-0.2-3.7-0.2h-1
			l4.8,6.9h0.9c1.8,0,2.9-0.5,3.5-1C662.5,127.2,662.4,125.9,661.3,124.7z"/>
		<path class="st2" d="M685.9,127.3c0.9,1,0.7,1.8-0.1,2.4c-0.9,0.6-2.6,0.9-4.8,0.9c-2.3,0-4.8-0.3-7.2-1l0.4-1.8
			c1.5,0.6,2.9,0.8,4.2,0.8c0.7,0,1.2-0.1,1.6-0.3c0.3-0.2,0.4-0.5,0.1-0.8c-0.3-0.3-0.7-0.6-1.5-0.9c-0.4-0.2-1.5-0.6-3.1-1.1
			c-1-0.3-2.2-0.8-3.7-1.4s-2.3-1.3-2.9-2c-0.6-0.8-0.6-1.5,0.3-2.1c0.9-0.5,2.3-0.8,4.4-0.8c1.8,0,3.7,0.2,5.7,0.7l-0.1,1.7
			c-1.2-0.2-2.2-0.3-2.9-0.3c-1.2,0-1.6,0.2-1.3,0.7c0.1,0.2,0.4,0.3,0.7,0.6c0.4,0.2,1.2,0.5,2.3,0.9c1.5,0.5,2.8,1,4.2,1.6
			C684,125.7,685.2,126.4,685.9,127.3z"/>
		<path class="st2" d="M713.9,124.8c1.5,1.6,1.9,3,1.2,4.1c-0.9,1.1-2.8,1.7-5.7,1.7c-3.1,0-6-0.6-8.8-1.7c-2.8-1-4.8-2.4-6.1-4.1
			c-1.5-1.6-1.6-3-0.6-4s2.9-1.5,5.9-1.5c2.6,0,5.4,0.5,8,1.5C710.3,121.9,712.4,123.2,713.9,124.8z M707.9,124.9
			c-2-2.3-4.2-3.3-6.6-3.3s-2.6,1.1-0.6,3.3c2,2.3,4.2,3.4,6.6,3.4C709.6,128.3,709.8,127.2,707.9,124.9z"/>
		<path class="st2" d="M726.4,121.9h-6l2.5,2.3h6l2,2.3h-6l4.1,3.4h-6l-10.2-10.3h11.9L726.4,121.9z"/>
		<path class="st2" d="M376.4,151.8h-6.1l2-6.7c0.1-0.5,0.4-1.4,0.9-2.5c-0.6,0.7-1.2,1.7-2,2.6l-5.9,6.7h-2.8l-1.6-6.7
			c-0.1-0.7-0.3-1.6-0.4-2.6c-0.3,0.9-0.4,1.8-0.7,2.6l-2.3,6.7h-5.1l4.7-12.6h7.5l1.9,7.6l6.7-7.6h7.2L376.4,151.8z"/>
		<path class="st2" d="M401.2,145.8c-0.3,1.4-0.7,2.3-1.3,3c-1.8,2-5,3-9.5,3c-3.8,0-6.3-0.7-7.5-2.1c-0.4-0.6-0.7-1.3-0.7-2
			c0-0.3,0.1-0.9,0.4-2l1.8-6.6h6.1L389,145c-0.4,1.6-0.4,2.5-0.3,3c0.3,0.7,1.2,1,2.3,1c1.8,0,2.9-0.6,3.7-1.5
			c0.3-0.5,0.6-1.3,0.9-2.5l1.3-5.7h5.4L401.2,145.8z"/>
		<path class="st2" d="M423.1,151.2l-6.9,0.2l-2.8-5.5h-1.6l-0.9,5.7h-6.4L407,139h8c1.5,0,2.6-0.1,3.2-0.1c1.2,0.1,2.2,0.2,2.9,0.6
			c1.5,0.6,2,1.5,1.9,2.8c-0.1,1.5-1.6,2.6-4.4,3.4L423.1,151.2z M417.3,142.6c0.1-0.7-0.1-0.8-0.7-1c-0.4-0.2-1.3,0-2.5,0h-1.2
			l-0.6,3.4h1.2c1.3,0,2.3-0.5,2.9-0.7C416.8,143.9,417.1,143.2,417.3,142.6z"/>
		<path class="st2" d="M444.9,151.2l-6.9,0.2l-3.1-5.5h-1.6l-0.4,5.7h-6.4L428,139h8c1.5,0,2.6-0.1,3.2-0.1c1.2,0.1,2.2,0.2,3.1,0.6
			c1.5,0.6,2.2,1.5,2.2,2.8c-0.1,1.5-1.5,2.6-4.1,3.4L444.9,151.2z M438.3,142.6c0-0.7-0.3-0.8-0.9-1c-0.4-0.2-1.3,0-2.5,0h-1.2
			l-0.3,3.4h1.2c1.3,0,2.3-0.5,2.9-0.7C438,143.9,438.3,143.2,438.3,142.6z"/>
		<path class="st2" d="M468.3,151.8h-6.9l-1.6-3.4h-6.7l-2.2,3.4h-5.1l9.2-12.6h5.3L468.3,151.8z M458.8,146l-2-3.9l-2.5,3.9H458.8z
			"/>
		<path class="st2" d="M487.1,138.9l-6,7.6l0.3,5.2H475l-0.1-5.2l-6.3-7.4l6.6-0.6l3.5,4.8l3.5-4.8L487.1,138.9z"/>
		<path class="st2" d="M496.3,149.7c0,0.5-0.4,1-1.3,1.8l-4.2,3.7l-2.2-0.8l2.8-3.3c0-0.1-0.1-0.3-0.4-0.6s-0.4-0.6-0.4-0.8
			c0-0.5,0.1-0.8,0.7-1.1s1.2-0.5,1.9-0.5c1,0,1.8,0.2,2.3,0.6C496,148.9,496.3,149.3,496.3,149.7z"/>
		<path class="st2" d="M529.1,144.9c0.4,2-0.1,3.4-1.8,4.7c-1.8,1.3-4.2,2-7.5,2c-3.2,0-6-0.7-8.2-2s-3.4-2.9-3.7-4.7
			c-0.3-2,0.4-3.4,2.2-4.6c1.8-1.1,4.2-1.7,7.3-1.7c2.8,0,5.4,0.6,7.5,1.7C527.3,141.6,528.6,143.1,529.1,144.9z M522.3,145
			c-0.6-2.6-2-3.9-4.7-3.9c-2.5,0-3.5,1.3-3.1,3.8c0.4,2.6,2,3.9,4.7,3.9S522.9,147.6,522.3,145z"/>
		<path class="st2" d="M549.1,151.8h-14.5l-3.1-12.6h6.1l2.6,10.3h7.9L549.1,151.8z"/>
		<path class="st2" d="M566.9,139.1l-3.8,12.6H557l-11.3-12.5l6.4-0.6l7.5,8.9l1.9-8.7L566.9,139.1z"/>
		<path class="st2" d="M580.6,151.8h-6.4l-4.7-12.6h6.1L580.6,151.8z"/>
		<path class="st2" d="M604.6,151.8h-4.1l-13-7.2l3.1,7.2h-5.1l-5.3-12.6h4.4l12.1,6.9l-3.2-6.9h4.8L604.6,151.8z"/>
		<path class="st2" d="M408.6,175.9h-15.8L396,161h13.6l-0.4,3.4h-7l-0.6,2.3h6.9L408,169h-7l-0.7,3.4h8.6L408.6,175.9z"/>
		<path class="st2" d="M428.4,175.9h-15.7L415,161h6.7l-1.6,11.5h8.6L428.4,175.9z"/>
		<path class="st2" d="M446.8,175.9h-15.7l1.5-14.9h6.7l-0.9,11.5h8.6L446.8,175.9z"/>
		<path class="st2" d="M456.8,175.9h-7l0.6-14.9h6.7L456.8,175.9z"/>
		<path class="st2" d="M477.8,175.9h-15.7V161h13.6l0.1,3.4h-7v2.3h6.9l0.1,2.3h-7l0.1,3.4h8.6L477.8,175.9z"/>
		<path class="st2" d="M487.9,173.9c0,0.6-0.4,1.3-1.5,2.2l-4.7,4.3l-2.3-0.9l3.1-3.9c0-0.1-0.1-0.3-0.4-0.7c-0.3-0.3-0.4-0.7-0.4-1
			c0-0.5,0.3-0.9,0.9-1.3s1.3-0.6,2-0.6c1,0,1.9,0.2,2.5,0.6C487.6,172.9,487.9,173.4,487.9,173.9z"/>
		<path class="st2" d="M521.4,171.4c0.1,1-0.1,1.8-1.2,2.6c-0.9,0.7-2,1.3-3.5,1.5c-1.2,0.2-3.2,0.3-6.1,0.3h-8l-1.9-14.9h7.9
			c1.9,0,3.2,0.1,4.1,0.2c0.9,0.1,1.6,0.2,2.3,0.5c2,0.6,3.2,1.5,3.5,2.9c0.1,0.8-0.1,1.4-0.7,1.8c-0.6,0.5-1.6,0.9-3.2,1.4
			c1,0.1,2,0.2,3.1,0.6C520,168.9,521.1,170,521.4,171.4z M512.7,165c-0.1-0.7-0.6-1.3-1.6-1.5c-0.4-0.1-1.2-0.2-2.2-0.2h-1l0.4,3.4
			h0.9c1.2,0,2-0.1,2.5-0.2C512.5,166.2,512.8,165.7,512.7,165z M514.3,171.1c-0.1-0.9-0.7-1.6-1.9-1.8c-0.4-0.1-1.3-0.2-2.5-0.2
			h-1.3l0.6,4.6h1c1.6,0,2.6-0.2,3.2-0.6C514.1,172.6,514.4,171.9,514.3,171.1z"/>
		<path class="st2" d="M541.9,175.9h-15.7l-2.9-14.9H537l0.6,3.4h-7l0.6,2.3h6.9l0.7,2.3h-6.9l0.7,3.4h8.6L541.9,175.9z"/>
		<path class="st2" d="M566.7,175.9h-4.4l-13-8.5l2.3,8.5H546l-3.8-14.9h4.7l12.1,8l-2.5-8h5.3L566.7,175.9z"/>
		<path class="st2" d="M494.2,192l-1.3,2.3h-2.8c0.4,0,0.7,1.3,0.7,2.1c0.1,1.4-0.4,2.5-1.5,3.7l4.8,2.8l-4.2,2.3l-3.5-2.2
			c-2.2,1.5-4.8,2.2-7.9,2.2c-2.8,0-5.1-0.6-7-1.7c-1.9-1.1-2.8-2.5-2.8-4.3c0-2.2,1.3-3.8,4.1-4.8c-1.8-1.1-2.5-2.4-2.6-3.4
			c0-1.1,0.6-2.1,1.9-2.8s2.9-1,5-1c1.8,0,3.5,0.3,5.6,1l-1.6,2.5c-1-0.5-2-0.7-2.8-0.7c-1.2,0-1.6,0.3-1.6,1c0,0.3,0.3,0.7,0.6,1
			c0.4,0.3,1.2,0.9,2.3,1.7l6.3,4c0.3-0.5,0.4-0.7,0.4-1.3c0-0.9-0.4-2.2-1.3-2.2h-3.1l1.5-2.3L494.2,192L494.2,192z M482.8,200.8
			l-6.7-4.3c-1.2,0.7-1.8,1.4-1.8,2.3c0,0.8,0.4,1.5,1.5,2.1c0.9,0.6,2,0.8,3.5,0.8C480.8,201.6,481.9,201.3,482.8,200.8z"/>
		<path class="st2" d="M459,239.2h-8l0.3-10.8c0-0.8,0.1-2.2,0.3-4.1c-0.4,1.3-1,2.5-1.8,4.1l-5.3,10.8H441l-4.2-10.8
			c-0.4-1.1-0.9-2.5-1.3-4.1c0,1.4,0,2.8-0.1,4.1l-0.7,10.8h-6.6l1.9-20.7h9.5l5,12.5l6-12.5h9.2L459,239.2z"/>
		<path class="st2" d="M491.4,239.2h-8.9l-2.5-5.7h-8.6l-2.6,5.7h-6.6l10.8-20.7h6.7L491.4,239.2z M478.6,231.1l-2.9-6.4l-2.9,6.4
			H478.6z"/>
		<path class="st2" d="M514.1,221.9h-7.9l2,17.2h-8.3l-1.6-17.2h-7.8l-0.3-3.4h23.4L514.1,221.9z"/>
		<path class="st2" d="M538,221.9h-7.9l3.1,17.2h-8.3l-2.8-17.2h-7.8l-0.6-3.4h23.4L538,221.9z"/>
	</g>
</g>
<g>
	<polygon class="st0" points="332.8,17.3 277.1,17.3 297.2,0.4 347.1,0.4 	"/>
	<polygon class="st3" points="388.7,17.3 332.8,17.3 347.1,0.4 396.9,0.4 	"/>
	<polygon class="st0" points="444.4,17.3 388.7,17.3 396.9,0.4 446.8,0.4 	"/>
	<polygon class="st3" points="500.1,17.3 444.4,17.3 446.8,0.4 496.6,0.4 	"/>
	<polygon class="st0" points="556,17.3 500.1,17.3 496.6,0.4 546.5,0.4 	"/>
	<polygon class="st0" points="667.5,17.3 611.7,17.3 596.4,0.4 646.2,0.4 	"/>
	<polygon class="st3" points="611.7,17.3 556,17.3 546.5,0.4 596.4,0.4 	"/>
	<polygon class="st3" points="314.8,38.7 251.5,38.7 277.1,17.3 332.8,17.3 	"/>
	<polygon class="st0" points="378.1,38.7 314.8,38.7 332.8,17.3 388.7,17.3 	"/>
	<polygon class="st3" points="441.3,38.7 378.1,38.7 388.7,17.3 444.4,17.3 	"/>
	<polygon class="st0" points="504.6,38.7 441.3,38.7 444.4,17.3 500.1,17.3 	"/>
	<polygon class="st3" points="567.9,38.7 504.6,38.7 500.1,17.3 556,17.3 	"/>
	<polygon class="st3" points="694.5,38.7 631.3,38.7 611.7,17.3 667.5,17.3 	"/>
	<polygon class="st0" points="631.3,38.7 567.9,38.7 556,17.3 611.7,17.3 	"/>
	<polygon class="st0" points="291.1,66.9 217.9,66.9 251.5,38.7 314.8,38.7 	"/>
	<polygon class="st3" points="364.1,66.9 291.1,66.9 314.8,38.7 378.1,38.7 	"/>
	<polygon class="st0" points="437.3,66.9 364.1,66.9 378.1,38.7 441.3,38.7 	"/>
	<polygon class="st3" points="510.5,66.9 437.3,66.9 441.3,38.7 504.6,38.7 	"/>
	<polygon class="st0" points="583.7,66.9 510.5,66.9 504.6,38.7 567.9,38.7 	"/>
	<polygon class="st0" points="729.9,66.9 656.8,66.9 631.3,38.7 694.5,38.7 	"/>
	<polygon class="st3" points="656.8,66.9 583.7,66.9 567.9,38.7 631.3,38.7 	"/>
	<polygon class="st3" points="258.5,105.5 171.8,105.5 217.9,66.9 291.1,66.9 	"/>
	<polygon class="st0" points="345.1,105.5 258.5,105.5 291.1,66.9 364.1,66.9 	"/>
	<polygon class="st3" points="431.8,105.5 345.1,105.5 364.1,66.9 437.3,66.9 	"/>
	<polygon class="st0" points="518.4,105.5 431.8,105.5 437.3,66.9 510.5,66.9 	"/>
	<polygon class="st3" points="605.2,105.5 518.4,105.5 510.5,66.9 583.7,66.9 	"/>
	<polygon class="st3" points="778.5,105.5 691.8,105.5 656.8,66.9 729.9,66.9 	"/>
	<polygon class="st0" points="691.8,105.5 605.2,105.5 583.7,66.9 656.8,66.9 	"/>
	<polygon class="st0" points="211.3,161.5 105,161.5 171.8,105.5 258.5,105.5 	"/>
	<polygon class="st3" points="317.6,161.5 211.3,161.5 258.5,105.5 345.1,105.5 	"/>
	<polygon class="st0" points="423.9,161.5 317.6,161.5 345.1,105.5 431.8,105.5 	"/>
	<polygon class="st3" points="530,161.5 423.9,161.5 431.8,105.5 518.4,105.5 	"/>
	<polygon class="st0" points="636.6,161.5 530.3,161.5 518.7,105.5 605.5,105.5 	"/>
	<polygon class="st0" points="848.9,161.5 742.6,161.5 691.8,105.5 778.5,105.5 	"/>
	<polygon class="st3" points="742.6,161.5 636.3,161.5 605.2,105.5 691.8,105.5 	"/>
	<polygon class="st3" points="136.3,250.3 -1,250.3 105,161.5 211.3,161.5 	"/>
	<polygon class="st0" points="273.8,250.3 136.3,250.3 211.3,161.5 317.6,161.5 	"/>
	<polygon class="st3" points="411.2,250.3 273.8,250.3 317.6,161.5 423.9,161.5 	"/>
	<polygon class="st0" points="548.5,250.3 411.2,250.3 423.9,161.5 530,161.5 	"/>
	<polygon class="st3" points="685.9,250.3 548.5,250.3 530,161.5 636.3,161.5 	"/>
	<polygon class="st3" points="960.6,250.3 823.3,250.3 742.6,161.5 848.9,161.5 	"/>
	<polygon class="st0" points="823.3,250.3 685.9,250.3 636.3,161.5 742.6,161.5 	"/>
</g>
<g id="Perspective_Text">
	<g>
		<path d="M234.3,86.5h-5.2l4.3-4.4c0.3-0.3,0.9-0.9,1.8-1.6c-0.7,0.5-1.6,1-2.7,1.6l-7.4,4.4h-2.2l1.2-4.4c0.1-0.5,0.3-1,0.6-1.7
			c-0.6,0.6-1,1.2-1.6,1.7l-4.4,4.4h-4.3l8.7-8.6h6.2l-1.5,5.1l8.6-5.1h5.9L234.3,86.5z"/>
		<path d="M243.7,86.5h-5.3l7.9-8.6h5.2L243.7,86.5z"/>
		<path d="M262.4,86.3c-1.6,0.2-3.3,0.3-4.7,0.3c-3.1,0-5.3-0.5-6.5-1.3s-1.2-1.9,0-3.3c1.2-1.3,3-2.3,5.6-3.1
			c2.5-0.8,5.3-1.2,8.3-1.2c1.5,0,3,0.1,4.3,0.5l-2.5,1.5c-0.9-0.1-1.6-0.2-2.4-0.2c-1.6,0-3.3,0.2-4.6,0.7
			c-1.5,0.5-2.5,1.2-3.1,1.9c-0.6,0.8-0.7,1.4-0.1,1.9c0.6,0.6,1.8,0.8,3.7,0.8c0.9,0,1.8-0.1,3-0.2L262.4,86.3z"/>
		<path d="M280.5,86.4l-5.9,0.3l-0.1-3.6h-1.3l-2.7,3.4h-5.3l7-8.6h6.7c1.3,0,2.2,0,2.7,0c1,0.1,1.8,0.2,2.2,0.5
			c1,0.5,1.2,1,0.4,1.9c-0.7,1-2.5,1.9-5,2.3L280.5,86.4z M279.2,80.6c0.3-0.5,0.3-0.7-0.1-0.9c-0.3-0.1-0.9-0.2-1.9-0.2h-1
			l-1.8,2.3h0.9c1,0,1.9-0.1,2.5-0.3C278.3,81.3,278.9,80.9,279.2,80.6z"/>
		<path d="M303,82.2c-0.9,1.3-2.4,2.3-4.6,3.3c-2.2,0.9-4.7,1.3-7.4,1.3s-4.4-0.5-5.5-1.3c-1-0.8-1-1.9,0-3.1
			c0.9-1.3,2.5-2.3,4.9-3.1c2.2-0.8,4.6-1.2,7.3-1.2c2.4,0,4,0.3,5,1.2C303.8,79.9,303.9,80.9,303,82.2z M297.6,82.2
			c1.2-1.7,0.7-2.7-1.3-2.7c-2.1,0-3.9,0.8-5,2.6c-1.3,1.7-0.9,2.7,1.3,2.7C294.6,84.9,296.2,83.9,297.6,82.2z"/>
		<path d="M333,78.1l-9.6,8.5h-5.2l-0.1-5.4l-7,5.4h-5.2l1.2-8.5l5.5-0.2l-1.5,6.1l7.7-5.9h3.9V84l6.2-6.1L333,78.1z"/>
		<path d="M347.2,86.5h-5.8l-0.3-2.1h-5.5l-2.8,2.1h-4.1l11.9-8.6h4.4L347.2,86.5z M341,83l-0.3-2.7l-3.4,2.7H341z"/>
		<path d="M369.1,78.1l-10.4,8.5h-5l-2.4-8.4l5.6-0.3l1,6.1l6.7-6.1L369.1,78.1z"/>
		<path d="M379.7,86.5h-11.9l3.4-8.6h10.5l-0.6,1.6h-5.3l-0.6,1.6h5.3l-0.6,1.6h-5.3l-0.7,2.1h6.5L379.7,86.5z"/>
		<path d="M395.5,84.7c-0.3,0.9-0.6,1.6-1.2,2.1c-0.6,0.6-1.6,1.2-3,1.5s-2.7,0.6-4.3,0.6l0.4-1.5c0.9-0.1,1.5-0.3,1.6-0.7
			c0.3-0.2,0.6-0.9,0.9-2l2.1-6.9h5.2L395.5,84.7z"/>
		<path d="M415.8,86.5H410l-0.9-2.1h-5.5l-2.2,2.1h-4.2l9.5-8.6h4.4L415.8,86.5z M408.6,83l-1.2-2.7l-2.7,2.7H408.6z"/>
		<path d="M435.4,78.1l-8,8.5h-5l-4.6-8.4l5.5-0.3l2.8,6.1l5-6.1L435.4,78.1z"/>
		<path d="M453,86.5h-5.8l-1.2-2.1h-5.5l-1.9,2.1h-4.2l8.2-8.6h4.4L453,86.5z M445.3,83l-1.5-2.7l-2.2,2.7H445.3z"/>
		<path d="M466.5,84c0,0.8-0.6,1.4-1.9,1.9s-3,0.7-5,0.7c-2.1,0-4-0.2-5.6-0.8l1.6-1.4c1,0.5,2.1,0.6,3.3,0.6c0.6,0,1.2-0.1,1.6-0.2
			s0.7-0.3,0.7-0.6c0-0.2-0.1-0.5-0.6-0.7c-0.3-0.1-0.9-0.5-1.9-0.9c-0.6-0.2-1.3-0.6-2.4-1c-0.9-0.5-1.2-0.9-1.2-1.5
			c0-0.7,0.6-1.2,1.8-1.6c1.2-0.3,2.7-0.6,4.4-0.6c1.6,0,3.1,0.2,4.6,0.6l-1.3,1.3c-0.9-0.2-1.6-0.3-2.4-0.3c-1,0-1.6,0.2-1.6,0.6
			c0,0.1,0.1,0.2,0.3,0.5c0.1,0.1,0.7,0.3,1.5,0.7c0.9,0.3,1.8,0.8,2.7,1.2C465.9,82.8,466.5,83.5,466.5,84z"/>
		<path d="M484.3,86.3c-1.5,0.2-3,0.3-4.4,0.3c-3.1,0-5.8-0.5-7.7-1.3c-1.9-0.8-3-1.9-3-3.3c0-1.3,0.9-2.3,2.8-3.1
			c1.9-0.8,4.3-1.2,7.1-1.2c1.5,0,3.1,0.1,4.6,0.5l-1.2,1.5c-0.9-0.1-1.8-0.2-2.5-0.2c-1.6,0-3,0.2-4,0.7s-1.5,1.2-1.5,1.9
			c0,0.8,0.4,1.4,1.5,1.9c1,0.6,2.5,0.8,4.3,0.8c0.9,0,1.8-0.1,2.7-0.2L484.3,86.3z"/>
		<path d="M502.4,86.4l-5.6,0.3l-3.4-3.6H492l0.3,3.4H487l-0.7-8.6h6.7c1.3,0,2.2,0,2.8,0c1,0.1,1.9,0.2,2.7,0.5
			c1.3,0.5,2.1,1,2.2,1.9c0.1,1-0.9,1.9-3,2.3L502.4,86.4z M495.7,80.6c0-0.5-0.3-0.7-0.9-0.9c-0.4-0.1-1.2-0.2-2.1-0.2h-1l0.3,2.3
			h0.9c1,0,1.9-0.1,2.4-0.3C495.6,81.3,495.7,80.9,495.7,80.6z"/>
		<path d="M556.6,142.7h-6.4l-4.5-5.6l-2.5,0.2l1.6,5.2H538l-2.8-12.6h8.4c1.3,0,2.2,0,2.8,0c1,0.1,1.9,0.2,2.7,0.5
			c1.3,0.5,2.1,1,2.2,1.9c0.4,1.7-0.1,3.4-2.2,3.8L556.6,142.7z M546.6,133.1c0-0.5-0.9-1.2-1.5-1.4c-0.4-0.1-0.3,0-1.2,0l-2.6,0.1
			l0.9,3h0.3c1.2,0.2,3.3-0.2,3.7-0.6C546.6,133.9,546.6,133.4,546.6,133.1z"/>
		<path d="M510.5,86.5h-5.3l-1.3-8.6h5.2L510.5,86.5z"/>
		<path d="M527.7,80.3c0.1,0.5,0,0.8-0.3,1.3c-0.3,0.3-0.7,0.7-1.3,0.9c-1.3,0.6-3.1,0.8-5.3,0.8h-0.4l-0.3-1.5
			c0.9,0,1.6-0.2,2.1-0.5c0.4-0.2,0.6-0.6,0.6-0.9c-0.1-0.5-0.6-0.8-1.5-0.9c-0.3,0-1-0.1-2.1-0.1h-0.7l1.5,7h-5.3l-1.6-8.6h6.2
			c1.5,0,2.5,0,3,0c1.2,0,2.1,0.2,3,0.3C526.7,78.8,527.6,79.5,527.7,80.3z"/>
		<path d="M543.6,79.5h-5l2.1,7h-5.3l-1.9-7h-5l-0.4-1.6h15.3L543.6,79.5z"/>
		<path d="M565.8,79.5h-5l2.8,7h-5.3l-2.5-7h-5l-0.6-1.6h15.3L565.8,79.5z"/>
		<path d="M582.9,86.5h-12l-3.6-8.6h10.5l0.7,1.6h-5.3l0.6,1.6h5.3l0.7,1.6h-5.3l0.9,2.1h6.5L582.9,86.5z"/>
		<path d="M602.6,86.5h-5.8l-2.5-2.1h-5.5l-0.7,2.1H584l3-8.6h4.4L602.6,86.5z M592.8,83l-3.1-2.7l-0.6,2.7H592.8z"/>
		<path d="M624.5,86.5h-5.2l-2.7-4.4c-0.1-0.3-0.4-0.9-0.9-1.6c0,0.5,0,1,0,1.6l-0.4,4.4h-2.2l-5.8-4.4c-0.6-0.5-1.3-1-2.1-1.7
			c0.4,0.6,0.7,1.2,1,1.7l2.5,4.4h-4.2l-4.7-8.6h6.2l6.7,5.1l0.4-5.1h5.9L624.5,86.5z"/>
		<path d="M645.6,80.3c0.3,0.5,0.4,0.8,0.3,1.3c-0.1,0.3-0.4,0.7-0.9,0.9c-1,0.6-2.7,0.8-4.9,0.8h-0.4l-1-1.5c0.9,0,1.5-0.2,1.8-0.5
			c0.3-0.2,0.4-0.6,0.1-0.9c-0.3-0.5-1-0.8-1.9-0.9c-0.4,0-1-0.1-2.1-0.1h-0.7l4.9,7h-5.3l-5.9-8.6h6.2c1.5,0,2.5,0,3,0
			c1.2,0,2.2,0.2,3.1,0.3C643.6,78.8,645,79.5,645.6,80.3z"/>
		<path d="M668.2,86.4l-5.5,0.3l-5.8-3.6h-1.3l2.7,3.4H653l-6.5-8.6h6.7c1.3,0,2.2,0,2.8,0c1,0.1,2.1,0.2,2.8,0.5
			c1.6,0.5,2.8,1,3.6,1.9c0.9,1,0.4,1.9-1.3,2.3L668.2,86.4z M657.6,80.6c-0.3-0.5-0.9-0.7-1.5-0.9c-0.4-0.1-1.2-0.2-2.2-0.2h-1
			l1.8,2.3h0.9c1,0,1.8-0.1,2.1-0.3C657.9,81.3,657.9,80.9,657.6,80.6z"/>
		<path d="M684.1,82.2c1.2,1.3,1.3,2.3,0.4,3.3c-0.9,0.9-2.7,1.3-5.3,1.3s-5.2-0.5-7.6-1.3c-2.4-0.8-4-1.9-5-3.1
			c-1-1.3-1-2.3-0.1-3.1c1-0.8,2.8-1.2,5.3-1.2c2.4,0,4.7,0.3,7,1.2C681.3,79.9,682.9,80.9,684.1,82.2z M678.6,82.2
			c-1.5-1.7-3.4-2.7-5.5-2.7s-2.4,0.8-0.9,2.6c1.5,1.7,3.4,2.7,5.5,2.7C679.8,84.7,680.1,83.9,678.6,82.2z"/>
		<path d="M695.1,84.7c0.9,0.9,1.3,1.6,1.5,2.1c0.1,0.6-0.3,1.2-1,1.5c-0.9,0.3-2.1,0.6-3.6,0.6l-1.5-1.5c0.7-0.1,1-0.3,0.9-0.7
			c0-0.2-0.6-0.9-1.5-2l-6.2-6.9h5.2L695.1,84.7z"/>
		<path d="M712.9,86.5h-12l-8.2-8.6h10.5l1.6,1.6h-5.3l1.6,1.6h5.3l1.6,1.6h-5.3l1.9,2.1h6.5L712.9,86.5z"/>
		<path d="M730,86.3c-1.2,0.2-2.5,0.3-4.2,0.3c-3.1,0-6.1-0.5-9-1.3c-2.8-0.8-4.9-1.9-6.2-3.3c-1.3-1.3-1.3-2.3-0.3-3.1
			c1-0.8,3-1.2,5.9-1.2c1.5,0,3.3,0.1,5,0.5l0.3,1.5c-1-0.1-1.9-0.2-2.7-0.2c-1.6,0-2.8,0.2-3.3,0.7c-0.4,0.5-0.3,1.2,0.4,1.9
			c0.7,0.8,1.9,1.4,3.3,1.9c1.6,0.6,3.3,0.8,5.2,0.8c0.9,0,1.8-0.1,2.5-0.2L730,86.3z"/>
		<path d="M738.9,79.5h-5l7.9,7h-5.3l-7.7-7h-5l-1.6-1.6h15.3L738.9,79.5z"/>
		<path d="M395.5,97.8c-0.4,1.5-1.6,2.7-3.6,3.6c-2.1,1-4.4,1.5-7.4,1.5s-5-0.5-6.4-1.5c-1.3-0.9-1.8-2.2-1.3-3.6
			c0.4-1.5,1.8-2.7,3.9-3.6s4.4-1.4,7.3-1.4c2.5,0,4.4,0.5,5.9,1.4C395.4,95.2,396,96.4,395.5,97.8z M389.6,97.8c0.6-2-0.3-3-2.5-3
			s-3.7,0.9-4.3,2.9c-0.6,2,0.1,3,2.5,3C387.7,100.8,389.1,99.8,389.6,97.8z"/>
		<path d="M413.2,102.4c-1.6,0.2-3.3,0.5-4.9,0.5c-3.4,0-5.9-0.5-7.9-1.4c-1.9-0.9-2.5-2.2-2.2-3.7c0.4-1.4,1.6-2.7,4-3.5
			c2.2-0.9,4.9-1.4,8-1.4c1.6,0,3.3,0.1,4.7,0.5l-1.8,1.7c-0.9-0.1-1.8-0.2-2.5-0.2c-1.8,0-3.3,0.2-4.4,0.8
			c-1.2,0.6-1.9,1.3-2.1,2.2c-0.1,0.8,0.1,1.5,1,2.1s2.4,0.9,4.4,0.9c0.9,0,1.9-0.1,3-0.2L413.2,102.4z"/>
		<path d="M431.8,94.8h-5.5l-1.2,7.9h-5.6l1.5-7.9h-5.3L416,93h16.2L431.8,94.8z"/>
		<path d="M451.5,97.8c-0.1,1.5-1,2.7-2.8,3.6c-1.8,1-4.1,1.5-7,1.5c-2.8,0-5-0.5-6.7-1.5c-1.6-0.9-2.2-2.2-2.1-3.6
			c0.1-1.5,1.2-2.7,3.1-3.6s4.2-1.4,7-1.4c2.5,0,4.6,0.5,6.2,1.4C450.8,95.2,451.5,96.4,451.5,97.8z M445.6,97.8c0.1-2-0.9-3-3.1-3
			s-3.4,0.9-3.7,2.9c-0.1,2,0.9,3,3.1,3C444.1,100.8,445.5,99.8,445.6,97.8z"/>
		<path d="M470.7,99.8c0,0.7-0.4,1.3-1.3,1.7c-0.7,0.5-1.8,0.8-3.1,0.9c-1,0.1-2.7,0.2-5,0.2h-6.7L455,93h6.5c1.6,0,2.7,0,3.4,0.1
			c0.6,0,1.3,0.1,1.9,0.2c1.6,0.3,2.4,1,2.4,1.9c0,0.5-0.3,0.9-0.9,1.3c-0.6,0.3-1.5,0.6-2.8,0.9c0.9,0,1.6,0.1,2.4,0.3
			C469.8,98.1,470.7,98.8,470.7,99.8z M464.4,95.6c0-0.5-0.4-0.8-1.2-0.9c-0.3-0.1-0.9-0.1-1.8-0.1h-0.9v2.2h0.7
			c1,0,1.8-0.1,2.1-0.2C464.1,96.4,464.4,96,464.4,95.6z M464.9,99.7c0-0.6-0.4-0.9-1.3-1.2c-0.3-0.1-1-0.1-1.9-0.1h-1v2.8h0.9
			c1.2,0,2.1-0.1,2.7-0.3C464.6,100.5,464.9,100.1,464.9,99.7z"/>
		<path d="M486.8,102.7h-12.7l-0.3-9.7H485l0.1,1.7h-5.8l0.1,1.9h5.6l0.1,1.9h-5.6l0.1,2.3h7L486.8,102.7z"/>
		<path d="M506.4,102.6l-5.9,0.3l-3.7-4.1h-1.5l0.4,3.8h-5.6l-0.9-9.7h7.1c1.3,0,2.4,0,3,0c1.2,0.1,2.1,0.2,2.8,0.5
			c1.5,0.5,2.2,1.2,2.4,2.2c0.1,1.2-0.9,2.1-3.1,2.7L506.4,102.6z M499.3,95.9c0-0.5-0.4-0.8-1-1c-0.4-0.1-1.2-0.2-2.2-0.2h-1
			l0.3,2.6h1c1.2,0,1.9-0.1,2.4-0.3C499.1,96.7,499.3,96.4,499.3,95.9z"/>
		<path d="M530.8,102.7h-15.3l-0.3-1.4c3.3-1.6,5.3-2.8,6.4-3.6c1-0.8,1.5-1.5,1.3-2.1c0-0.3-0.3-0.6-0.7-0.7
			c-0.4-0.2-0.9-0.2-1.6-0.2c-1,0-2.4,0.3-4,0.9l-2.1-1.4c1.9-0.8,4.2-1.3,6.8-1.3c2.1,0,3.7,0.2,5,0.7s2.1,1,2.2,1.7
			c0.3,1-0.6,2.2-2.7,3.4c-0.6,0.3-1.8,0.9-3.7,2h7.9L530.8,102.7z"/>
		<path d="M548.3,97.7c0.4,1.5,0.1,2.7-1.2,3.7c-1.2,0.9-3.1,1.5-5.5,1.5s-4.6-0.5-6.4-1.5c-1.8-0.9-2.8-2.2-3.3-3.6
			c-0.4-1.5,0-2.7,1.3-3.6c1.2-0.9,3.1-1.3,5.5-1.3c2.2,0,4.3,0.5,6.1,1.3C546.7,95.1,547.9,96.3,548.3,97.7z M542.8,97.8
			c-0.6-2.1-1.8-3.1-3.6-3.1s-2.2,1-1.6,3.1c0.6,2.1,1.8,3.3,3.6,3.3C542.8,100.9,543.4,99.9,542.8,97.8z"/>
		<path d="M563.4,102.7h-5.6l-2.8-8l-3.4,0.8l-1-1.4l4.7-1h4.7L563.4,102.7z"/>
		<path d="M584.8,99.4c0.4,0.9,0,1.7-1.3,2.4s-3.1,1-5.3,1c-2.4,0-4.3-0.3-6.1-1c-1.9-0.7-3.1-1.6-3.6-2.8c-0.7-1.7,0.3-3.3,2.8-4.4
			c2.2-1,5.2-1.6,8.7-1.9l0.6,1.4c-1.5,0-2.8,0.3-4.2,0.8c-1.3,0.6-2.1,1-2.2,1.6c0.7-0.1,1.6-0.1,2.4-0.1c1.9,0,3.7,0.2,5.2,0.8
			C583.5,98,584.3,98.6,584.8,99.4z M579.3,99.7c-0.3-0.6-0.6-0.9-1.2-1.3c-0.6-0.3-1.2-0.5-1.9-0.5s-1.2,0.1-1.5,0.5
			c-0.3,0.3-0.3,0.7-0.1,1.3c0.3,0.6,0.6,1,1.2,1.4c0.6,0.3,1.2,0.6,1.9,0.6s1.2-0.2,1.5-0.6S579.5,100.2,579.3,99.7z"/>
		<path d="M241.8,112.2h-6.1l-2.2,2.7h6.1l-1.8,2.1h-6.1l-3.7,4.3h-6l9.6-11.1h12L241.8,112.2z"/>
		<path d="M255.3,121.1l-6.7,0.3l0.3-4.7h-1.5l-3.6,4.4h-6.1l9-11.1h7.6c1.5,0,2.5,0,3.1,0.1c1,0.1,1.9,0.2,2.5,0.6
			c1,0.6,1.2,1.4,0.3,2.4c-1,1.3-3,2.3-5.9,3L255.3,121.1z M254.3,113.4c0.4-0.6,0.4-0.9,0-1.2c-0.3-0.1-1-0.2-2.2-0.2h-1l-2.4,2.9
			h1c1.2,0,2.2-0.1,3-0.3C253.4,114.3,254,114,254.3,113.4z"/>
		<path d="M281.4,115.5c-1.2,1.6-3,3-5.5,4.2c-2.7,1.2-5.5,1.7-8.6,1.7s-5-0.6-6.1-1.7c-1-1-0.9-2.4,0.3-4.2c1.2-1.6,3.3-3,5.8-4.1
			c2.7-1,5.5-1.5,8.3-1.5c2.7,0,4.6,0.5,5.6,1.5C282.4,112.6,282.4,113.9,281.4,115.5z M275,115.6c1.6-2.3,1.2-3.4-1.3-3.4
			c-2.4,0-4.4,1.2-6.1,3.4c-1.6,2.3-1.3,3.5,1.2,3.5C271.5,119,273.4,117.9,275,115.6z"/>
		<path d="M303.9,121.2h-5.8l3.4-5.7c0.3-0.5,0.7-1.2,1.5-2.2c-0.7,0.7-1.5,1.4-2.5,2.2l-7,5.7h-2.7v-5.7c0-0.6,0-1.3,0.1-2.2
			c-0.4,0.8-0.9,1.5-1.3,2.2l-3.7,5.7H281l7.3-11.1h7v6.6l8.2-6.6h6.8L303.9,121.2z"/>
		<path d="M336.4,112.2h-5.8l-4.4,9.1h-6.1l4.7-9.1h-5.6l1-2.1h17.2L336.4,112.2z"/>
		<path d="M353.3,121.2h-6.1l2.2-5.1h-6.5l-2.4,5.1h-6.1l5.2-11.1h5.9l-1.6,3.8h6.4l1.6-3.8h5.9L353.3,121.2z"/>
		<path d="M371.7,121.2H358l4.3-11.1h12l-0.7,2.1h-6.1l-0.7,2.1h6.1l-0.7,2.1H366l-1,2.7h7.6L371.7,121.2z"/>
		<path d="M405.6,121.2h-5.8l1.3-5.7c0.1-0.5,0.3-1.2,0.6-2.2c-0.4,0.7-1,1.4-1.8,2.2l-4.9,5.7h-2.7l-2.1-5.7
			c-0.1-0.6-0.4-1.3-0.6-2.2c-0.1,0.8-0.3,1.5-0.4,2.2l-1.6,5.7h-4.9l3.3-11.1h7l2.4,6.6l5.6-6.6h6.8L405.6,121.2z"/>
		<path d="M429.3,121.2h-6.5l-1.2-2.8h-6.2l-2.5,2.8h-4.7l10.2-11.1h5L429.3,121.2z M420.9,116.7l-1.5-3.5l-2.8,3.5H420.9z"/>
		<path d="M449.6,120.8c-2.4,0.3-4.4,0.6-6.4,0.6c-3.6,0-6.4-0.6-8.6-1.7c-2.2-1.2-3.1-2.6-3-4.3c0.1-1.6,1.5-2.9,3.7-4
			c2.2-1,5-1.5,8.4-1.5c1.8,0,3.4,0.2,5,0.6l-1.6,1.9c-0.9-0.1-1.8-0.2-2.7-0.2c-1.9,0-3.4,0.3-4.7,0.9c-1.2,0.6-1.9,1.4-1.9,2.4
			c-0.1,0.9,0.3,1.7,1.2,2.4c0.9,0.7,2.1,1,3.6,1c0.3,0,0.6,0,0.9-0.1l0.3-2.9h5.9L449.6,120.8z"/>
		<path d="M471.6,121.2h-3.9l-9-6.4l-0.1,6.4h-4.9l0.4-11.1h4.2l8.6,6.1v-6.1h4.6L471.6,121.2z"/>
		<path d="M482.2,121.2h-6.1l-0.4-11.1h5.9L482.2,121.2z"/>
		<path d="M498.4,112.2h-6.1l0.3,2.7h6.1l0.3,2.1h-6.1l0.4,4.3h-6.1l-0.7-11.1h12L498.4,112.2z"/>
		<path d="M508.6,121.2h-6.1l-1.5-11.1h5.9L508.6,121.2z"/>
		<path d="M529.7,121c-1.6,0.3-3.3,0.5-5,0.5c-3.6,0-6.7-0.6-9-1.6c-2.4-1-3.7-2.4-4-4.2c-0.3-1.6,0.6-3,2.5-4.1
			c1.9-1,4.6-1.5,7.9-1.5c1.8,0,3.6,0.2,5.3,0.6l-1,2c-1-0.1-2.1-0.2-2.8-0.2c-1.9,0-3.4,0.3-4.4,0.9s-1.5,1.4-1.2,2.4
			c0.1,0.9,0.9,1.7,2.1,2.4c1.3,0.7,3,1,5.2,1c1,0,2.1-0.1,3.1-0.2L529.7,121z"/>
		<path d="M546.6,121.2H533l-2.7-11.1h12l0.6,2.1h-6.1l0.6,2.1h6.1l0.6,2.1H538l0.7,2.7h7.6L546.6,121.2z"/>
		<path d="M568.2,121.2h-3.9l-11.3-6.4l2.1,6.4h-5l-3.3-11.1h4.1l10.7,6.1l-2.1-6.1h4.6L568.2,121.2z"/>
		<path d="M584.6,112.2h-5.8l3.7,9.1h-6.1l-3.6-9.1h-5.6l-0.7-2.1h17.2L584.6,112.2z"/>
		<path d="M621.4,121.2h-5.8l-3-5.7c-0.1-0.5-0.6-1.2-1-2.2c0,0.7,0,1.4,0,2.2l-0.6,5.7h-2.7l-6.5-5.7c-0.7-0.6-1.5-1.3-2.4-2.2
			c0.4,0.8,0.9,1.5,1.2,2.2l2.8,5.7h-4.9l-5.2-11.1h7l7.6,6.6l0.6-6.6h6.8L621.4,121.2z"/>
		<path d="M632.1,121.2H626l-6.2-11.1h5.9L632.1,121.2z"/>
		<path d="M654.7,121.2h-3.9l-13.2-6.4l4,6.4h-4.9l-6.7-11.1h4.2l12.5,6.1l-4-6.1h4.6L654.7,121.2z"/>
		<path d="M674.3,115.3c1.6,2.1,1.3,3.7-0.7,4.9c-1.5,0.7-3.9,1-7.3,1h-6.8l-7.6-11.1h6.2c2.1,0,3.7,0,4.6,0.1
			c2.7,0.2,4.9,0.8,7,1.6C671.6,112.8,673.3,114,674.3,115.3z M667.9,115.4c-0.9-1.3-2.4-2.2-4.2-2.8c-1-0.2-2.2-0.5-3.7-0.5h-1
			l4.9,6.9h0.9c1.8,0,3-0.2,3.6-0.7C669.1,117.7,669,116.7,667.9,115.4z"/>
		<path d="M692.8,118c0.9,1,0.7,1.9-0.1,2.4c-0.9,0.6-2.7,0.9-4.9,0.9c-2.4,0-4.9-0.3-7.3-1l0.4-1.9c1.5,0.6,3,0.8,4.3,0.8
			c0.7,0,1.2-0.1,1.6-0.3c0.3-0.2,0.4-0.5,0.1-0.8c-0.3-0.3-0.7-0.6-1.5-0.9c-0.4-0.2-1.5-0.6-3.1-1.2c-1-0.3-2.2-0.8-3.7-1.4
			s-2.4-1.3-3-2c-0.6-0.8-0.6-1.5,0.3-2.1c0.9-0.5,2.4-0.8,4.4-0.8c1.8,0,3.7,0.2,5.8,0.7l-0.1,1.7c-1.2-0.2-2.2-0.3-3-0.3
			c-1.2,0-1.6,0.2-1.3,0.7c0.1,0.2,0.4,0.3,0.7,0.6c0.4,0.2,1.2,0.5,2.4,0.9c1.5,0.5,2.8,1,4.3,1.6
			C690.9,116.4,692.1,117.1,692.8,118z"/>
		<path d="M721.2,115.5c1.5,1.6,1.9,3,1.2,4.2c-0.9,1.2-2.8,1.7-5.8,1.7c-3.1,0-6.1-0.6-8.9-1.7c-2.8-1-4.9-2.4-6.2-4.2
			c-1.5-1.6-1.6-3-0.6-4.1c1-1,3-1.5,5.9-1.5c2.7,0,5.5,0.5,8.2,1.5C717.6,112.6,719.7,113.9,721.2,115.5z M715.1,115.6
			c-2.1-2.3-4.3-3.4-6.7-3.4s-2.7,1.2-0.6,3.4c2.1,2.3,4.3,3.5,6.7,3.5S717,117.9,715.1,115.6z"/>
		<path d="M733.9,112.2h-6.1l2.5,2.7h6.1l2.1,2.1h-6.1l4.2,4.3h-6.1l-10.4-11.1h12L733.9,112.2z"/>
		<path d="M379.4,142.5h-6.2l2.1-6.6c0.1-0.5,0.4-1.3,0.9-2.6c-0.6,0.7-1.2,1.6-2.1,2.6l-5.9,6.6h-2.8l-1.6-6.6
			c-0.1-0.7-0.3-1.5-0.4-2.6c-0.3,0.9-0.4,1.7-0.7,2.6l-2.4,6.6h-5.2l4.7-12.8h7.6l1.9,7.7l6.8-7.7h7.3L379.4,142.5z"/>
		<path d="M404.4,136.6c-0.3,1.4-0.7,2.4-1.3,3c-1.8,2-5,3-9.6,3c-3.9,0-6.4-0.7-7.6-2.1c-0.4-0.6-0.7-1.3-0.7-2
			c0-0.3,0.1-1,0.4-2.1l1.8-6.8h6.2l-1.5,6.1c-0.4,1.6-0.4,2.6-0.3,3c0.3,0.7,1.2,1,2.4,1c1.8,0,3-0.5,3.7-1.5
			c0.3-0.5,0.6-1.4,0.9-2.7l1.3-6.1h5.5L404.4,136.6z"/>
		<path d="M426.6,142.3l-7,0.5l-2.8-5.4h-1.6l-0.9,5.1h-6.5l2.5-12.8h8.2c1.5,0,2.7,0,3.3,0.1c1.2,0.1,2.2,0.3,3,0.6
			c1.5,0.6,2.1,1.5,1.9,2.8c-0.1,1.5-1.6,2.7-4.4,3.5L426.6,142.3z M420.7,133.5c0.1-0.7-0.1-1-0.7-1.4c-0.4-0.2-1.3-0.2-2.5-0.2
			h-1.2l-0.6,3.4h1.2c1.3,0,2.4-0.1,3-0.5C420.3,134.5,420.6,134.1,420.7,133.5z"/>
		<path d="M448.7,142.3l-7,0.5l-3.1-5.4H437l-0.4,5.1h-6.5l1.5-12.8h8.2c1.5,0,2.7,0,3.3,0.1c1.2,0.1,2.2,0.3,3.1,0.6
			c1.5,0.6,2.2,1.5,2.2,2.8c-0.1,1.5-1.5,2.7-4.1,3.5L448.7,142.3z M442.1,133.5c0-0.7-0.3-1-0.9-1.4c-0.4-0.2-1.3-0.2-2.5-0.2h-1.2
			l-0.3,3.4h1.2c1.3,0,2.4-0.1,3-0.5C441.8,134.5,442.1,134.1,442.1,133.5z"/>
		<path d="M472.4,142.5h-7l-1.6-3.1H457l-2.2,3.1h-5.2l9.3-12.8h5.3L472.4,142.5z M462.8,137.3l-2.1-4l-2.5,4H462.8z"/>
		<path d="M491.4,129.8l-6.1,7.6l0.3,5.1h-6.5l-0.1-5.1l-6.4-7.3l6.7-0.5l3.6,4.9l3.6-4.9L491.4,129.8z"/>
		<path d="M500.8,140.8c0,0.5-0.4,1-1.3,1.9l-4.3,3.7l-2.2-0.8l2.8-3.4c0-0.1-0.1-0.3-0.4-0.6s-0.4-0.6-0.4-0.8
			c0-0.5,0.1-0.8,0.7-1.2c0.6-0.3,1.2-0.5,1.9-0.5c1,0,1.8,0.2,2.4,0.6C500.5,139.9,500.8,140.3,500.8,140.8z"/>
		<path d="M534,135.9c0.4,2-0.1,3.5-1.8,4.8c-1.8,1.3-4.3,2-7.6,2s-6.1-0.7-8.3-2s-3.4-2.9-3.7-4.8c-0.3-2,0.4-3.5,2.2-4.7
			s4.3-1.7,7.4-1.7c2.8,0,5.5,0.6,7.6,1.7C532.2,132.5,533.5,134,534,135.9z M527.1,136c-0.6-2.7-2.1-4-4.7-4
			c-2.5,0-3.6,1.3-3.1,3.8c0.4,2.7,2.1,4,4.7,4S527.7,138.7,527.1,136z"/>
		<path d="M574.2,142.5h-14.7l-4.2-12.8h6.6l3.4,10.2h8L574.2,142.5z"/>
		<path d="M586.1,142.5h-6.5l-4.7-12.8h6.2L586.1,142.5z"/>
		<path d="M610.4,142.5h-4.2l-13.2-7.3l3.1,7.3H591l-5.3-12.8h4.4l12.3,7l-3.3-7h4.9L610.4,142.5z"/>
		<path d="M412,167.3h-16l3.3-14.9H413l-0.4,2.7h-7.1l-0.6,2.8h7l-0.4,2.8h-7.1l-0.7,3.6h8.7L412,167.3z"/>
		<path d="M432,167.3h-15.9l2.4-14.9h6.8l-1.6,12h8.7L432,167.3z"/>
		<path d="M450.7,167.3h-15.9l1.5-14.9h6.8l-0.9,12h8.7L450.7,167.3z"/>
		<path d="M460.7,167.3h-7.1l0.6-14.9h6.8L460.7,167.3z"/>
		<path d="M482.1,167.3h-15.9v-14.9H480l0.1,2.7H473v2.8h7l0.1,2.8H473l0.1,3.6h8.7L482.1,167.3z"/>
		<path d="M492.3,165.2c0,0.6-0.4,1.3-1.5,2.2l-4.7,4.3l-2.4-0.9l3.1-4c0-0.1-0.1-0.3-0.4-0.7c-0.3-0.3-0.4-0.7-0.4-1
			c0-0.5,0.3-0.9,0.9-1.3c0.6-0.3,1.3-0.6,2.1-0.6c1,0,1.9,0.2,2.5,0.6C492,164.3,492.3,164.7,492.3,165.2z"/>
		<path d="M526.2,162.8c0.1,1-0.1,1.9-1.2,2.7c-0.9,0.7-2.1,1.3-3.6,1.5c-1.2,0.2-3.3,0.3-6.2,0.3H507l-1.9-14.9h8
			c1.9,0,3.3,0,4.2,0.1s1.6,0.2,2.4,0.5c2.1,0.6,3.3,1.5,3.6,2.8c0.1,0.8-0.1,1.4-0.7,1.9c-0.6,0.5-1.6,0.9-3.3,1.4
			c1,0.1,2.1,0.2,3.1,0.6C524.8,160.2,526,161.3,526.2,162.8z M517.4,156.2c-0.1-0.7-0.6-1.2-1.6-1.4c-0.4-0.1-1.2-0.1-2.2-0.1h-1
			l0.4,3.4h0.9c1.2,0,2.1-0.1,2.5-0.3C517.2,157.4,517.5,156.9,517.4,156.2z M519,162.4c-0.1-0.9-0.7-1.5-1.9-1.7
			c-0.4-0.1-1.3-0.1-2.5-0.1h-1.3l0.6,4.3h1c1.6,0,2.7-0.2,3.3-0.6C518.8,163.8,519.1,163.2,519,162.4z"/>
		<path d="M547,167.3h-15.9l-3-14.9H542l0.6,2.7h-7.1l0.6,2.8h7l0.7,2.8h-7l0.7,3.6h8.7L547,167.3z"/>
		<path d="M572,167.3h-4.4l-13.2-8.6l2.4,8.6h-5.6l-3.9-14.9h4.7l12.3,8.2l-2.5-8.2h5.3L572,167.3z"/>
		<path d="M498.7,183.3l-1.3,2.1h-2.8c0.4,0.7,0.7,1.5,0.7,2.3c0.1,1.4-0.4,2.7-1.5,3.8l4.9,2.8l-4.3,2.3l-3.6-2.2
			c-2.2,1.5-4.9,2.2-8,2.2c-2.8,0-5.2-0.6-7.1-1.7c-1.9-1.2-2.8-2.6-2.8-4.3c0-2.2,1.3-3.8,4.1-4.9c-1.8-1.2-2.5-2.3-2.7-3.5
			c0-1.2,0.6-2.1,1.9-2.8s3-1,5-1c1.8,0,3.6,0.3,5.6,1l-1.6,2.6c-1-0.5-2.1-0.7-2.8-0.7c-1.2,0-1.6,0.3-1.6,1c0,0.3,0.3,0.7,0.6,1
			c0.4,0.3,1.2,0.9,2.4,1.7l6.4,4.1c0.3-0.5,0.4-1,0.4-1.5c0-0.9-0.4-1.7-1.3-2.4h-3.1l1.5-2.1h11L498.7,183.3L498.7,183.3z
			 M487.1,192.5l-6.8-4.3c-1.2,0.7-1.8,1.4-1.8,2.3c0,0.8,0.4,1.5,1.5,2.1c0.9,0.6,2.1,0.8,3.6,0.8C485,193.3,486.2,193,487.1,192.5
			z"/>
		<path d="M463,231.4h-8.2l0.3-10.9c0-0.8,0.1-2.2,0.3-4.2c-0.4,1.3-1,2.6-1.8,4.2l-5.3,10.9h-3.6l-4.3-10.9
			c-0.4-1.2-0.9-2.6-1.3-4.2c0,1.4,0,2.8-0.1,4.2l-0.7,10.9h-6.7l1.9-21.2h9.6l5,12.7l6.1-12.7h9.3L463,231.4z"/>
		<path d="M495.9,231.4h-9l-2.5-5.2h-8.7l-2.5,5.2h-6.7l11-21.2h6.8L495.9,231.4z M482.8,222.6l-3-6.5l-3,6.5H482.8z"/>
		<path d="M518.8,214h-8l2.1,17.4h-8.4l-1.6-17.4H495l-0.3-3.8h23.7L518.8,214z"/>
		<path d="M543,214h-8l3.3,17.4h-8.4L527,214h-7.9l-0.6-3.8h23.7L543,214z"/>
	</g>
</g>
</svg>
